<svg aria-hidden="true" overflow="hidden" style="position:absolute;width:0;height:0">
  <defs>
    <symbol id="icon-envelope" viewBox="0 0 43 32">
      <path d="M38.67 0H4a4 4 0 0 0-4 4v24a4 4 0 0 0 4 4h34.67a4 4 0 0 0 4-4V4a4 4 0 0 0-4-4zm0 2.67c.18 0 .35.03.5.1L21.34 18.24 3.5 2.77c.16-.07.33-.1.51-.1h34.67zm0 26.66H4c-.74 0-1.33-.6-1.33-1.33V5.59L20.46 21a1.33 1.33 0 0 0 1.75 0L40 5.59V28c0 .74-.6 1.33-1.34 1.33z"/>
    </symbol>
    <symbol id="icon-smartphone" viewBox="0 0 20 32">
      <path d="M17 0H3a3 3 0 0 0-3 3v26a3 3 0 0 0 3 3h14a3 3 0 0 0 3-3V3a3 3 0 0 0-3-3zM3 2h14a1 1 0 0 1 1 1v21H2V3a1 1 0 0 1 1-1zm14 28H3a1 1 0 0 1-1-1v-3h16v3a1 1 0 0 1-1 1z"/>
      <path d="M4.7 27.48c.4.36.4.95 0 1.32s-1.02.36-1.4 0c-.4-.37-.4-.96 0-1.32s1.02-.37 1.4 0z"/>
    </symbol>
    <symbol id="icon-instagram" viewBox="0 0 32 32">
      <path d="M31.97 9.4a11.7 11.7 0 0 0-.74-3.87 7.8 7.8 0 0 0-1.86-2.84A7.87 7.87 0 0 0 26.54.84 11.7 11.7 0 0 0 22.66.1C20.95.02 20.4 0 16.06 0s-4.89.02-6.6.1C7.76.16 6.6.43 5.58.83a7.8 7.8 0 0 0-2.84 1.85A7.87 7.87 0 0 0 .9 5.52C.5 6.54.23 7.7.16 9.4c-.08 1.71-.1 2.26-.1 6.6s.02 4.9.09 6.6c.08 1.7.35 2.87.74 3.88a7.9 7.9 0 0 0 1.85 2.84c.8.81 1.77 1.44 2.84 1.84 1.02.4 2.18.67 3.88.75 1.7.07 2.25.09 6.6.09s4.88-.02 6.59-.1a11.7 11.7 0 0 0 3.88-.74 8.18 8.18 0 0 0 4.68-4.68c.4-1.02.67-2.18.75-3.88.07-1.7.09-2.25.09-6.6s0-4.89-.08-6.6zm-2.88 13.07a8.76 8.76 0 0 1-.55 2.97 5.31 5.31 0 0 1-3.04 3.04c-.56.22-1.41.48-2.97.55-1.69.07-2.2.1-6.46.1s-4.79-.02-6.47-.1a8.76 8.76 0 0 1-2.97-.55 4.93 4.93 0 0 1-1.84-1.2 4.97 4.97 0 0 1-1.19-1.83 8.81 8.81 0 0 1-.55-2.97c-.07-1.69-.1-2.2-.1-6.47s.03-4.78.1-6.46c.07-1.56.33-2.4.55-2.97a4.9 4.9 0 0 1 1.2-1.84 4.97 4.97 0 0 1 1.84-1.19A8.81 8.81 0 0 1 9.6 3c1.69-.07 2.2-.1 6.46-.1 4.28 0 4.78.03 6.47.1a8.7 8.7 0 0 1 2.96.55c.7.26 1.33.66 1.84 1.2.53.51.94 1.14 1.2 1.83.22.57.48 1.42.55 2.97.07 1.69.1 2.2.1 6.46s-.03 4.77-.1 6.46z"/>
      <path d="M16.06 7.78a8.22 8.22 0 1 0 0 16.45 8.22 8.22 0 0 0 0-16.45zm0 13.55a5.33 5.33 0 1 1 0-10.66 5.33 5.33 0 0 1 0 10.67zM26.52 7.46a1.92 1.92 0 1 1-3.83 0 1.92 1.92 0 0 1 3.83 0z"/>
    </symbol>
    <symbol id="icon-twitter" viewBox="0 0 32 32">
      <path d="M32 6.08c-1.19.52-2.46.87-3.78 1.03a6.52 6.52 0 0 0 2.89-3.62 13.11 13.11 0 0 1-4.16 1.59 6.57 6.57 0 0 0-11.2 5.98A18.57 18.57 0 0 1 2.23 4.2a6.57 6.57 0 0 0 2.02 8.77 6.48 6.48 0 0 1-2.97-.81v.07a6.59 6.59 0 0 0 5.26 6.44 6.55 6.55 0 0 1-2.97.1 6.62 6.62 0 0 0 6.13 4.58 13.18 13.18 0 0 1-9.7 2.7A18.47 18.47 0 0 0 10.06 29c12.08 0 18.68-10 18.68-18.67 0-.29-.01-.57-.03-.85 1.3-.92 2.4-2.07 3.29-3.4z"/>
    </symbol>
    <symbol id="icon-facebook" viewBox="0 0 32 32">
      <path d="M21.33 5.31h2.92V.23C23.75.15 22.01 0 19.99 0c-4.2 0-7.1 2.65-7.1 7.52V12H8.26v5.69h4.65V32h5.7V17.69h4.46l.7-5.69H18.6V8.08c0-1.64.45-2.77 2.74-2.77z"/>
    </symbol>
    <symbol id="icon-linkedin" viewBox="0 0 32 32">
      <path d="M32 32V20.26c0-5.74-1.24-10.16-7.95-10.16-3.23 0-5.39 1.77-6.27 3.45h-.1v-2.92h-6.36V32h6.63V21.42c0-2.79.52-5.48 3.97-5.48 3.4 0 3.45 3.18 3.45 5.66V32H32zM.53 10.64h6.63V32H.53V10.64zM3.84 0C1.72 0 0 1.72 0 3.84s1.72 3.88 3.84 3.88A3.88 3.88 0 0 0 7.7 3.84 3.85 3.85 0 0 0 3.84 0z"/>
    </symbol>
    <symbol id="icon-client-1" viewBox="0 0 28 32">
      <path d="m4.08 0 4.78 4.52H0v21.9h23.15v-8.37l4.77 4.51V0H4.07zm18.86 17.52L9.4 4.7h13.53v12.8zm-4.2 5.7H3.66V8.48h1.07v13.74h14v1zM7.22 29.34l-.55 1.15-.56-1.15h-.47l.81 1.53v.9h.43v-.9l.8-1.53h-.46zm.7 2.42.2-.56h.94l.2.56h.43l-.91-2.42H8.4l-.91 2.42h.43zm.67-1.9.35 1h-.7l.35-1zm2.21.94a.64.64 0 0 0 .12.8c.15.13.34.2.58.2s.45-.07.62-.2l.14.16h.47l-.36-.42c.14-.19.2-.43.2-.73h-.34c0 .16-.04.31-.1.44l-.47-.55.16-.12a.9.9 0 0 0 .26-.25.53.53 0 0 0 .07-.28.5.5 0 0 0-.17-.38.61.61 0 0 0-.43-.16c-.2 0-.35.06-.47.17a.6.6 0 0 0-.17.44c0 .08.02.16.06.25.03.08.1.18.2.3-.19.13-.3.24-.37.33zm1.1.54a.62.62 0 0 1-.39.13c-.12 0-.21-.03-.28-.1s-.11-.16-.11-.27c0-.13.07-.25.2-.35l.05-.04.53.63zm-.44-1.07c-.11-.14-.17-.26-.17-.35 0-.09.03-.15.07-.2s.11-.08.19-.08c.07 0 .13.02.18.06.05.05.07.1.07.16a.3.3 0 0 1-.1.24l-.05.04-.19.13zm3.94 1.31a.88.88 0 0 0 .29-.6h-.42c-.02.17-.07.3-.16.37s-.2.1-.37.1a.47.47 0 0 1-.41-.2c-.1-.14-.14-.34-.14-.6v-.21a1 1 0 0 1 .15-.59.5.5 0 0 1 .42-.2c.16 0 .28.04.36.12.08.07.13.2.15.37h.42c-.03-.26-.12-.47-.28-.61s-.38-.22-.65-.22c-.2 0-.37.05-.53.14-.15.1-.26.23-.34.4s-.12.38-.12.6v.23c0 .23.04.42.12.59s.2.3.34.4c.15.08.32.13.51.13.28 0 .5-.08.66-.22zm2.47-.34c.09-.18.13-.39.13-.62v-.14c0-.23-.04-.44-.13-.62a.92.92 0 0 0-.88-.55c-.2 0-.37.05-.52.14a.94.94 0 0 0-.35.42c-.09.18-.13.39-.13.62v.14c0 .23.04.44.13.61.08.18.2.32.35.41.16.1.33.15.53.15s.37-.05.52-.15a.9.9 0 0 0 .35-.4zm-.45-1.37c.1.15.16.35.16.62v.13c0 .27-.05.48-.15.62a.5.5 0 0 1-.43.21.5.5 0 0 1-.44-.22c-.1-.14-.15-.35-.15-.61v-.14c0-.26.05-.47.16-.6a.5.5 0 0 1 .42-.22.5.5 0 0 1 .43.21z"/>
    </symbol>
    <symbol id="icon-client-2" viewBox="0 0 25 32">
      <path d="M10.53 1.8h-.75a14.18 14.18 0 0 0-.8.01 17.4 17.4 0 0 0-6.47 1.65l-.26.13v13.63l.62-.22a21.16 21.16 0 0 1 6.71-1.18v1.8c-.22 0-.44 0-.65.02h-.05A19.95 19.95 0 0 0 .48 20V2.54A18.3 18.3 0 0 1 5.27.58C6.74.2 8.26.01 9.78 0h.26a12.96 12.96 0 0 1 3.16.4v1.76a15.7 15.7 0 0 0-2.18-.33h-.04l-.45-.03zm3.1 1.8a19.35 19.35 0 0 0 5.95-.56c1.6-.4 3.13-1 4.57-1.78v17.16c-1.5.88-3.11 1.53-4.8 1.95-1.47.38-2.99.58-4.5.58-1.16.01-2.31-.12-3.43-.4V3.27a14.28 14.28 0 0 0 2.21.34zm8.74.14-.63.21c-.57.2-1.15.36-1.73.52a21.1 21.1 0 0 1-6.31.63l-.5-.04v14.02l.43.04a16.57 16.57 0 0 0 5.29-.48 17.1 17.1 0 0 0 3.18-1.14l.27-.13V3.74zM1.68 25.98A.91.91 0 0 0 1 25.7c-.14 0-.27.02-.4.07a.91.91 0 0 0-.51.52 1 1 0 0 0-.07.39V29c0 .17.02.33.09.48a.81.81 0 0 0 .55.48c.12.03.23.05.35.05a.97.97 0 0 0 .9-.61.95.95 0 0 0 .07-.37v-.26h-.61v.2a.5.5 0 0 1-.04.21.36.36 0 0 1-.09.13.37.37 0 0 1-.12.07.42.42 0 0 1-.13.02.31.31 0 0 1-.29-.12.55.55 0 0 1-.08-.32V26.8c0-.12.02-.24.08-.35.03-.05.07-.1.12-.12s.12-.03.17-.02c.06 0 .11 0 .16.03s.09.06.12.1c.06.09.1.2.1.31v.2h.6v-.24a1.1 1.1 0 0 0-.28-.73zm3.63-.03a1.05 1.05 0 0 0-1.38 0c-.1.1-.18.2-.24.33-.06.14-.09.3-.09.45v2.24c0 .16.03.31.1.46a.9.9 0 0 0 .23.31c.1.09.2.15.32.2a1.08 1.08 0 0 0 .73 0c.12-.05.23-.11.33-.2a.96.96 0 0 0 .32-.77v-2.24a1.02 1.02 0 0 0-.32-.78zm-.28 3.02a.4.4 0 0 1-.13.32.45.45 0 0 1-.57 0 .4.4 0 0 1-.12-.32v-2.24a.4.4 0 0 1 .12-.32.45.45 0 0 1 .57 0 .4.4 0 0 1 .13.32v2.24zm5.04 1v-4.24h-.59l-.77 2.24-.78-2.24h-.59v4.24h.61v-2.58h.01l.6 1.82h.3l.6-1.82v2.58h.61zm3.44-3.94a.84.84 0 0 0-.34-.24 1.36 1.36 0 0 0-.44-.06h-.9v4.24h.6V28.3h.32c.18.01.37-.03.54-.11a.88.88 0 0 0 .33-.33.98.98 0 0 0 .14-.37 3 3 0 0 0-.02-1.08.9.9 0 0 0-.23-.4zm-.3 1.29a.57.57 0 0 1-.07.22.35.35 0 0 1-.15.15.62.62 0 0 1-.29.05h-.27V26.3h.31c.1 0 .19.02.27.05.06.04.11.1.14.16.04.08.05.16.06.24v.57zm3.16-1.59h-.5l-.92 4.24h.6l.18-.91h.82l.18.9h.6l-.96-4.23zm-.55 2.75.3-1.54.3 1.54h-.6zm4.46-.2h-.01l-.92-2.55h-.58v4.24h.6v-2.55h.02l.92 2.55h.57v-4.24h-.6v2.55zm3.69-2.55-.49 1.69h-.01l-.49-1.69h-.64l.83 2.45v1.79h.6v-1.8l.84-2.44h-.64zM0 31.17h.3v.81h.19v-.81h.29V31H0v.17zM2.45 31l-.38.98h.2l.09-.22h.39l.08.22h.22l-.4-.98h-.2zm-.03.6.13-.37.13.36h-.26zm2.45.02h.22v.13a.38.38 0 0 1-.23.08c-.04 0-.08 0-.12-.02l-.09-.07a.41.41 0 0 1-.07-.26c0-.22.1-.33.28-.33.05 0 .1 0 .14.04s.07.07.08.12l.2-.04c-.05-.2-.18-.29-.42-.29a.5.5 0 0 0-.34.13c-.05.05-.1.1-.12.17l-.03.2c0 .14.04.27.13.38a.48.48 0 0 0 .38.14c.15 0 .3-.05.41-.16v-.39h-.42v.17zM7.34 31h-.2v.98h.69v-.17h-.5V31zm2.09 0h-.2v.98h.2V31zm2.04.66-.4-.66h-.2v.98h.19v-.64l.4.64h.2V31h-.2v.66zm1.84-.11h.5v-.17h-.5v-.21h.53V31h-.72v.98h.74v-.16h-.54v-.27zm4.49-.16h-.4v-.4h-.2v1h.2v-.44h.4v.43h.19V31h-.2v.39zm1.85.16h.5v-.17h-.5v-.21h.53V31h-.73v.98h.75v-.16h-.55v-.27zm2.52 0c.17-.03.26-.12.26-.28a.24.24 0 0 0-.1-.21.55.55 0 0 0-.29-.06h-.42v.98h.2v-.41h.04c.04 0 .09 0 .12.02s.06.04.07.07l.22.32h.24l-.12-.2a.69.69 0 0 0-.22-.23zm-.2-.14h-.15v-.24h.16c.07 0 .13 0 .2.02l.03.04.01.06-.01.06a.11.11 0 0 1-.04.04.55.55 0 0 1-.2.02zm2.1.14h.49v-.17h-.5v-.21h.54V31h-.73v.98h.74v-.16h-.54v-.27z"/>
    </symbol>
    <symbol id="icon-client-3" viewBox="0 0 34 32">
      <path d="M5.64 31.32h.04l.03.02.16.16c-.13.13-.28.23-.46.3-.21.08-.44.11-.67.1-.21.01-.42-.02-.62-.1a1.28 1.28 0 0 1-.77-.73 1.47 1.47 0 0 1 0-1.12c.08-.16.19-.31.33-.44.14-.12.31-.22.5-.29a1.96 1.96 0 0 1 1.24 0c.16.06.31.14.44.25l-.14.17a.17.17 0 0 1-.03.03.1.1 0 0 1-.06.01l-.06-.01-.07-.05-.1-.06a1.3 1.3 0 0 0-.58-.12c-.16 0-.32.03-.46.08s-.26.12-.36.21a1.02 1.02 0 0 0-.32.79c0 .15.02.3.08.45a.94.94 0 0 0 .58.55c.13.05.28.07.43.07l.25-.01a1.01 1.01 0 0 0 .55-.23.13.13 0 0 1 .08-.03zm4.8-.8a1.27 1.27 0 0 1-.42.99c-.14.13-.31.23-.5.29-.4.14-.85.14-1.26 0a1.45 1.45 0 0 1-.49-.29 1.29 1.29 0 0 1-.31-.44 1.46 1.46 0 0 1 0-1.12 1.25 1.25 0 0 1 .81-.72 2 2 0 0 1 1.26 0c.18.07.35.16.49.29a1.29 1.29 0 0 1 .42 1zm-.43 0c0-.16-.03-.3-.08-.45a.94.94 0 0 0-.58-.56c-.3-.1-.62-.1-.91 0a.97.97 0 0 0-.36.22.9.9 0 0 0-.22.34c-.1.29-.1.6 0 .9a.93.93 0 0 0 .58.55c.3.1.62.1.91 0a.93.93 0 0 0 .57-.55c.06-.15.09-.3.09-.45zm3.7.47.05.1.05-.1a.95.95 0 0 1 .05-.1l1.06-1.68c.02-.03.04-.04.06-.05h.4v2.72h-.37v-2.19l-1.07 1.7c-.01.03-.03.05-.06.07s-.06.02-.09.02h-.06c-.03 0-.06 0-.1-.02s-.04-.04-.05-.06l-1.1-1.71v2.18h-.36v-2.72h.31l.09.01a.1.1 0 0 1 .06.05l1.08 1.68.06.1zm4-.13v1.02h-.41v-2.73h.92a2 2 0 0 1 .52.06c.13.04.26.1.36.17.1.08.17.17.21.27.05.11.07.23.07.35a.77.77 0 0 1-.3.62c-.1.08-.23.14-.37.18-.16.04-.33.06-.5.06h-.5zm0-.3h.5c.11 0 .22-.01.33-.04a.71.71 0 0 0 .23-.12.53.53 0 0 0 .2-.4c0-.08-.02-.16-.05-.23s-.09-.13-.15-.18a.89.89 0 0 0-.56-.15h-.5v1.12zm5.59 1.32h-.33c-.04 0-.07 0-.1-.03a.17.17 0 0 1-.05-.06l-.28-.66h-1.42l-.3.66a.15.15 0 0 1-.14.09h-.33l1.25-2.73h.43l1.26 2.73zm-2.06-1.01h1.17l-.5-1.11a1.75 1.75 0 0 1-.09-.26l-.05.14-.04.12-.5 1.1zm3.85-1.71.06.05 1.82 2.06v-2.12h.37v2.73h-.2a.2.2 0 0 1-.1-.02.24.24 0 0 1-.06-.05l-1.81-2.05v2.12h-.38v-2.73h.22a.2.2 0 0 1 .08.02zm5.31 1.64v1.08H30V30.8l-1.15-1.65h.37l.09.03a.1.1 0 0 1 .05.06l.72 1.06a1.88 1.88 0 0 1 .13.24l.06-.12a.97.97 0 0 1 .07-.12l.7-1.07a.3.3 0 0 1 .06-.06.14.14 0 0 1 .09-.03h.37L30.4 30.8zm-16.89-6.22.55.05c2.8-1.1 5.17-2.88 6.81-5.13s2.49-4.88 2.43-7.55l-3.1-2.68c.64 2.84.34 5.78-.84 8.48s-3.21 5.07-5.85 6.83z"/>
      <path d="m12.4 24.45.09.02c2.82-1.76 4.97-4.2 6.18-7.03s1.4-5.9.57-8.84l-4.4-3.82c1.78 3.14 2.5 6.66 2.06 10.14s-1.99 6.79-4.5 9.53zm14.93-9.35a13.74 13.74 0 0 1-5.18 7.54 16.5 16.5 0 0 1-2.46 1.54c2.13-.55 4.09-1.5 5.72-2.81s2.9-2.92 3.7-4.72l-1.78-1.55z"/>
      <path d="m26.63 14.67-2.54-2.2c-.05 2.51-.88 4.97-2.39 7.12s-3.66 3.9-6.22 5.08h.02c.57 0 1.14-.03 1.7-.08 2.4-.85 4.5-2.2 6.15-3.93s2.77-3.79 3.28-5.99zM12.77 3.17 9.74.53c-2.7.91-5.04 2.51-6.68 4.6S.53 9.65.52 12.18c0 2.79 1.09 5.5 3.07 7.69s4.74 3.75 7.86 4.43c2.78-2.94 4.4-6.58 4.64-10.38s-.92-7.57-3.32-10.76zm20.86 11.1c-.01-3.31-1.53-6.48-4.22-8.82s-6.34-3.66-10.15-3.67c-1.76 0-3.5.28-5.15.83l18.56 16.13c.64-1.43.96-2.94.96-4.47z"/>
    </symbol>
    <symbol id="icon-client-4" viewBox="0 0 65 32">
      <path d="M10.02 9.98c-1.83 0-3.31 1.32-3.31 2.94 0 1.63 1.48 2.95 3.3 2.95 1.83 0 3.31-1.32 3.31-2.94 0-1.63-1.48-2.95-3.3-2.95zm24.41-.94c0-2.25-1.01-4.41-2.8-6S27.4.53 24.85.53c-2.54 0-4.97.9-6.77 2.49s-2.8 3.76-2.8 6.01v12.44s19.14-1.9 19.14-12.44zM0 25.56c0 1.57.7 3.08 1.96 4.19s2.94 1.73 4.7 1.74c1.77-.01 3.46-.63 4.7-1.74s1.96-2.62 1.96-4.19v-8.65S0 18.23 0 25.56zm6.66 1.55c-.34 0-.68-.09-.97-.26s-.5-.41-.64-.7c-.13-.28-.17-.59-.1-.9s.23-.57.48-.79.55-.36.9-.42c.33-.06.68-.03 1 .09s.59.31.78.57a1.43 1.43 0 0 1-.21 1.96 1.89 1.89 0 0 1-1.24.46zm13.47-.85h-1.29v1.33h-.67v-3.25h2.12v.54h-1.45v.84h1.29v.54zm3.22-.23c0 .32-.06.6-.17.85s-.28.42-.5.55c-.2.14-.44.2-.71.2a1.34 1.34 0 0 1-1.22-.75 1.9 1.9 0 0 1-.17-.83v-.16a2 2 0 0 1 .17-.84 1.28 1.28 0 0 1 1.21-.76 1.34 1.34 0 0 1 1.22.76c.1.24.17.52.17.84v.14zm-.68-.14c0-.34-.06-.6-.19-.78s-.3-.26-.52-.26a.6.6 0 0 0-.52.26c-.12.17-.18.43-.18.77v.15c0 .34.06.6.18.78s.3.27.53.27a.6.6 0 0 0 .52-.26c.12-.18.18-.44.18-.77v-.16zm2.85.84a.34.34 0 0 0-.14-.29 1.71 1.71 0 0 0-.48-.21 3.46 3.46 0 0 1-.55-.22c-.37-.2-.55-.47-.55-.8 0-.18.05-.34.14-.48.1-.14.25-.24.43-.32a1.6 1.6 0 0 1 1.25.01.93.93 0 0 1 .57.88h-.67a.43.43 0 0 0-.14-.35.58.58 0 0 0-.4-.13.61.61 0 0 0-.38.11.32.32 0 0 0-.13.27c0 .1.05.2.15.27.11.07.27.14.48.2.38.11.65.26.83.42s.26.39.26.64c0 .28-.1.5-.32.66-.21.16-.5.24-.86.24a1.5 1.5 0 0 1-.68-.14.97.97 0 0 1-.63-.93h.67c0 .36.21.54.64.54.16 0 .29-.03.37-.1a.32.32 0 0 0 .14-.27zm3.57-1.85h-1v2.7h-.66v-2.7h-.99v-.54h2.65v.54zm2.34 1.3h-1.28v.87h1.5v.54h-2.17v-3.25h2.17v.54h-1.5v.77h1.28v.53zm1.82.22h-.53v1.19h-.67v-3.25h1.2c.39 0 .69.08.9.25s.3.42.3.73a1 1 0 0 1-.14.55.98.98 0 0 1-.43.36l.7 1.33v.03h-.72l-.6-1.2zm-.53-.55h.54c.16 0 .3-.04.39-.12.09-.09.14-.2.14-.36a.49.49 0 0 0-.14-.36c-.08-.09-.22-.13-.4-.13h-.53v.97zm4.05.6v1.14h-.67v-3.25h1.27c.25 0 .46.04.65.13a1.03 1.03 0 0 1 .58.94c0 .32-.11.57-.33.76-.22.18-.52.27-.9.27h-.6zm0-.55h.6c.18 0 .32-.04.4-.13.1-.08.15-.2.15-.35 0-.16-.05-.3-.14-.39s-.23-.15-.4-.15h-.6v1.02zm4.24.28h-1.28v.87h1.5v.54h-2.17v-3.25h2.17v.54h-1.5v.77H41v.53zm3.1-1.3h-.99v2.7h-.67v-2.7h-.98v-.54h2.65v.54zm2.35 1.3h-1.29v.87h1.51v.54H44.5v-3.25h2.18v.54h-1.5v.77h1.28v.53zm1.82.22h-.54v1.19h-.67v-3.25h1.21c.39 0 .68.08.89.25s.31.42.31.73a1 1 0 0 1-.14.55.98.98 0 0 1-.44.36l.7 1.33v.03h-.71l-.61-1.2zm-.54-.55h.54c.17 0 .3-.04.4-.12.09-.09.13-.2.13-.36a.49.49 0 0 0-.13-.36c-.09-.09-.22-.13-.4-.13h-.54v.97zm3.94.88a.34.34 0 0 0-.13-.29 1.71 1.71 0 0 0-.49-.21 3.46 3.46 0 0 1-.55-.22c-.37-.2-.55-.47-.55-.8 0-.18.05-.34.14-.48.1-.14.25-.24.43-.32a1.6 1.6 0 0 1 1.25.01.93.93 0 0 1 .57.88h-.67a.43.43 0 0 0-.14-.35.58.58 0 0 0-.4-.13.61.61 0 0 0-.38.11.32.32 0 0 0-.13.27c0 .1.05.2.15.27.11.07.27.14.48.2.38.11.65.26.83.42s.26.39.26.64c0 .28-.1.5-.32.66-.21.16-.5.24-.86.24a1.5 1.5 0 0 1-.68-.14.97.97 0 0 1-.63-.93h.67c0 .36.21.54.64.54.16 0 .28-.03.37-.1a.32.32 0 0 0 .14-.27z"/>
    </symbol>
    <symbol id="icon-client-5" viewBox="0 0 43 32">
      <path d="M3.24 26.37a1.07 1.07 0 0 1-.14 1.51c-.32.22-.72.33-1.12.3H0v-4.21h1.94c.38-.02.76.08 1.07.28.13.1.22.22.29.35s.1.29.09.44a.92.92 0 0 1-.23.64c-.15.17-.36.29-.59.33.26.05.5.17.67.36zm-2.32-.63h.83c.19.01.37-.04.52-.14.07-.06.12-.12.14-.19s.05-.15.04-.23c0-.07 0-.15-.04-.22s-.07-.13-.13-.19a.86.86 0 0 0-.55-.14H.92v1.1zm1.44 1.61c.06-.05.11-.12.15-.19s.05-.15.04-.23c0-.09 0-.17-.04-.24s-.1-.15-.16-.2a.9.9 0 0 0-.56-.15H.92v1.16h.88c.2.01.4-.04.56-.15zm4.84.83-1.08-1.64h-.4v1.65h-.93v-4.22h1.75c.44-.03.88.1 1.22.36.25.23.4.53.42.85s-.08.64-.29.9c-.21.22-.5.37-.83.42l1.14 1.68h-1zm-1.5-2.22h.76c.53 0 .8-.21.8-.63a.59.59 0 0 0-.2-.48.87.87 0 0 0-.6-.17H5.7v1.28zm6.56 1.38h-1.84l-.33.84h-.97l1.7-4.16h1.04l1.7 4.17h-.98l-.32-.85zm-.24-.64-.68-1.78-.68 1.78h1.35zm6.58 1.48h-.92l-2.06-2.86v2.86h-.92v-4.21h.92l2.06 2.88v-2.88h.92v4.21zm5.25-1a2 2 0 0 1-.83.74 3 3 0 0 1-1.3.26H20.1v-4.21h1.64a3 3 0 0 1 1.29.26c.35.16.64.42.83.73a2.29 2.29 0 0 1 0 2.22zm-1.05-.1a1.47 1.47 0 0 0 0-2.01 1.7 1.7 0 0 0-1.15-.37H21v2.73h.64c.42.03.83-.1 1.15-.35zM12.84.52s11.87 4.1 11.62 10.04v10.05s-11.87-4.1-11.62-10.04V.51zm22.2 17.74a17.21 17.21 0 0 1 7.54-2.55v-3.14a15.26 15.26 0 0 0-7.54 5.69z"/>
      <path d="M33.69 19.2a15.71 15.71 0 0 1 8.9-7.29V2.85S25.66 8.7 26.02 17.15v14.3s.75-.26 1.94-.75c0-.45 0-.91.05-1.38a14.49 14.49 0 0 1 5.67-10.11z"/>
      <path d="M32.08 24.52c.09-1 .29-1.97.6-2.93a13.24 13.24 0 0 0-3.59 8.64c.96-.42 2.08-.95 3.25-1.57a13.7 13.7 0 0 1-.26-4.14zm.67.05c-.1 1.25-.04 2.52.21 3.75 4.62-2.53 9.81-6.44 9.61-11.17v-.4a15.8 15.8 0 0 0-8.79 3.75c-.56 1.3-.9 2.68-1.03 4.07z"/>
    </symbol>
    <symbol id="icon-client-6" viewBox="0 0 67 32">
      <path d="M33.72 15.22a2.1 2.1 0 0 1-.43-1.41v-2.05c0-.63.15-1.1.43-1.43s.78-.5 1.47-.5c.65 0 1.12.15 1.39.43.3.35.44.79.41 1.22v.48h-1.17v-.48c0-.16 0-.32-.03-.48a.47.47 0 0 0-.17-.29.68.68 0 0 0-.42-.1.71.71 0 0 0-.44.11c-.1.08-.17.2-.2.31a2.4 2.4 0 0 0-.04.51v2.49c-.02.24.03.48.15.7a.6.6 0 0 0 .53.2c.15.02.3-.02.41-.1a.5.5 0 0 0 .18-.31c.02-.16.04-.33.03-.5v-.5H37v.46c.03.45-.1.9-.4 1.29-.27.3-.73.45-1.4.45s-1.18-.16-1.46-.5zm4.86.02c-.3-.31-.44-.78-.44-1.4V11.7c0-.61.15-1.07.44-1.39s.8-.46 1.48-.46c.69 0 1.18.15 1.47.46.3.32.45.78.45 1.39v2.15c0 .61-.15 1.08-.45 1.4s-.8.48-1.47.48c-.68 0-1.18-.16-1.48-.48zm2.02-.51c.11-.2.16-.42.14-.64v-2.64c.02-.22-.03-.43-.13-.63-.06-.07-.15-.13-.24-.17s-.2-.05-.3-.04c-.11-.01-.22 0-.32.04s-.18.1-.24.17c-.1.2-.15.41-.14.63v2.65c-.01.22.04.44.14.64a.76.76 0 0 0 .55.21c.1 0 .2-.02.3-.05s.18-.1.24-.16v-.01zm2.78-4.83h1.26l.94 3.98.97-3.98h1.22l.12 5.74H47l-.1-3.99-.93 4h-.73l-.96-4.01-.1 4h-.9l.11-5.74zm5.92 0h1.96c1.13 0 1.69.54 1.69 1.63 0 1.04-.6 1.56-1.78 1.56h-.67v2.56h-1.2V9.9zm1.67 2.46a.94.94 0 0 0 .67-.19.9.9 0 0 0 .17-.65c0-.17-.01-.35-.06-.52-.01-.05-.04-.1-.09-.15s-.09-.09-.15-.12a1.4 1.4 0 0 0-.54-.1h-.47v1.72h.47zM54.7 9.9h1.29l1.33 5.74h-1.13l-.26-1.32h-1.16l-.27 1.32h-1.14l1.33-5.74zm1.1 3.75-.45-2.4-.45 2.4h.9zm2.6-3.75h.84l1.62 3.28V9.9h1v5.74h-.8l-1.63-3.42v3.42H58.4V9.9zm5.8 3.56L62.87 9.9H64l.82 2.28.77-2.28h1.1l-1.32 3.54v2.2H64.2v-2.2zm-28.61 4.7v.3h-.99v2.33h-.41v-2.33h-.99v-.3h2.39zm3.09 2.63h-.32c-.03 0-.06 0-.09-.03a.13.13 0 0 1-.05-.06l-.29-.62h-1.36l-.29.63-.04.07a.15.15 0 0 1-.1.02h-.31l1.2-2.63h.43l1.22 2.62zm-2-.98h1.14l-.48-1.07a1.75 1.75 0 0 1-.1-.25l-.04.14-.04.11-.48 1.07zm4.08.72H41a1.39 1.39 0 0 0 .37-.08l.16-.06v-.6H41l-.03-.01-.02-.03v-.22h.93v1a1.84 1.84 0 0 1-.8.27c-.13.02-.24.02-.36.02-.21 0-.42-.03-.61-.1a1.3 1.3 0 0 1-.8-.7 1.32 1.32 0 0 1-.1-.54c-.01-.18.03-.37.1-.55.07-.15.18-.3.31-.41.14-.12.3-.22.49-.28a2.04 2.04 0 0 1 .98-.07 1.65 1.65 0 0 1 .53.17l.21.14-.12.16c0 .02-.02.03-.04.04l-.05.01c-.03 0-.05 0-.08-.02a1.58 1.58 0 0 1-.11-.06c-.05-.03-.1-.06-.17-.07a1.5 1.5 0 0 0-.52-.09c-.16 0-.32.03-.47.08-.13.04-.26.12-.36.2a1 1 0 0 0-.22.33c-.1.29-.1.6 0 .88a1.03 1.03 0 0 0 1.07.6zm3.85-.04h1.32v.3h-1.72v-2.63h.41v2.33zm2.69.3h-.4v-2.63h.4v2.63zm1.54-2.62a.1.1 0 0 1 .06.05l1.77 1.98v-2.05h.36v2.64h-.2l-.1-.01a.23.23 0 0 1-.06-.05l-1.77-1.99v2.05h-.34v-2.63h.21a.2.2 0 0 1 .07 0zm5.23-.01v.29h-1.46v.87h1.18v.27h-1.18v.9h1.46v.3h-1.89v-2.63h1.89zM10.78 1.89l18.34 4.5v15.75l-18.34-4.5V1.9zM9.61.55V18.4l20.69 5.1V5.62L9.6.54z"/>
      <path d="M20.7 31.78 0 26.7V8.84l20.7 5.07v17.87z"/>
      <path d="m9.95 1.69 18.1 4.44-7.7 6.65-18.1-4.45 7.7-6.64zM9.6.54 0 8.85l20.7 5.07 9.6-8.29L9.6.55zm12.26 30.24 8.44-7.3-8.44-2.06v9.36z"/>
    </symbol>
    <symbol id="icon-antenna" viewBox="0 0 32 32">
      <path fill="var(--color1, #212121)" d="m30.77 22.1-8.44-8.5.94-4.62c.24.1.5.14.75.14h.01a2.16 2.16 0 1 0-2-1.43l-4.97.6L8.97.16A.53.53 0 0 0 8.6 0a.53.53 0 0 0-.37.16l-1.51 1.5c-.2.2-.2.55 0 .75l.81.83a14.94 14.94 0 0 0 2.52 17.66c.05.04.1.08.15.1a2.5 2.5 0 0 0-.05.55v6.18h-6.4a2.67 2.67 0 0 0-2.67 2.67v1.07c0 .3.24.53.53.53h24.54c.29 0 .53-.24.53-.53V30.4c0-1.47-1.2-2.66-2.67-2.66h-6.4v-2.75a14.85 14.85 0 0 0 10.09-1.46l.82.82a.53.53 0 0 0 .75 0l1.51-1.5c.2-.2.2-.54 0-.75zM23.28 6.23a1.07 1.07 0 1 1 .75 1.82 1.07 1.07 0 0 1-.75-1.82zm-1.26 3.5-.6 2.95-1.17-1.18 1.78-1.76zm-.6-.9-1.92 1.92-1.5-1.5 3.4-.41zM24 28.8c.89 0 1.6.72 1.6 1.6v.53H2.14v-.53c0-.88.71-1.6 1.6-1.6H24zm-7.46-2.13v1.06H11.2v-1.06h5.34zM11.2 25.6v-4.05c0-1.3 1.2-2.35 2.67-2.35s2.67 1.05 2.67 2.35v4.05H11.2zm6.4-1.7v-2.35c0-1.89-1.67-3.42-3.73-3.42a3.8 3.8 0 0 0-3.28 1.79A13.87 13.87 0 0 1 8.31 4.03l18.6 18.71a13.82 13.82 0 0 1-9.3 1.16zm11.3-.68L7.83 2.04l.75-.75 7.94 7.98 13.12 13.2-.76.75z"/>
      <path fill="var(--color2, #2196f3)" d="M13.88 20.27a1.6 1.6 0 1 0-.01 3.2 1.6 1.6 0 1 0 0-3.2zm.37 1.98c-.1.1-.24.15-.38.15a.53.53 0 0 1 0-1.07.53.53 0 0 1 .37.92z"/>
    </symbol>
    <symbol id="icon-clock" viewBox="0 0 32 32">
      <path fill="var(--color1, #212121)" d="M31.3 15.3a15.3 15.3 0 1 0-19.96 14.58l.18.03c.12 0 .24-.03.35-.1.13-.07.23-.2.28-.35L16 17.21a1.91 1.91 0 1 0-.84-3.63l-5.1-5.1a.64.64 0 0 0-.9.9l5.1 5.1c-.4.8-.17 1.77.53 2.31l-3.68 11.67a14.04 14.04 0 1 1 10.57-.35l-.4-1.87a.64.64 0 0 0-1.04-.34l-3.84 3.42a.64.64 0 0 0 .23 1.09l4.9 1.56a.64.64 0 0 0 .82-.74l-.4-1.84A15.26 15.26 0 0 0 31.3 15.3zM16 14.66a.64.64 0 1 1 0 1.28.64.64 0 0 1 0-1.28zm2.1 14.87 2.18-1.95.6 2.84-2.79-.9z"/>
      <path fill="var(--color2, #2196f3)" d="M15.35 3.19v1.27a.64.64 0 1 0 1.28 0V3.19a.64.64 0 0 0-1.28 0zM3.88 14.66a.64.64 0 0 0 0 1.28h1.27a.64.64 0 1 0 0-1.28H3.88zm24.22 1.28a.64.64 0 1 0 0-1.28h-1.27a.64.64 0 0 0 0 1.28h1.28z"/>
    </symbol>
    <symbol id="icon-diagram" viewBox="0 0 32 32">
      <path fill="var(--color2, #2196f3)" d="M14.93 14.96h1.06v4.8h-1.06v-4.8zm4.26 2.14h1.07v2.66h-1.07V17.1zm-8.53 1.6h1.07v1.06h-1.07V18.7zm-3.2-.54h1.07v1.6H7.46v-1.6z"/>
      <path fill="var(--color1, #212121)" d="M1.6 28.3h25.59c.88 0 1.6-.73 1.6-1.6v-2.14c0-.88-.72-1.6-1.6-1.6h-.54V9.66l3.03-2.86a1.6 1.6 0 1 0-.75-.76L26.65 8.2V6.97c0-.88-.71-1.6-1.6-1.6H3.73c-.88 0-1.6.72-1.6 1.6v16H1.6c-.88 0-1.6.7-1.6 1.6v2.12c0 .89.72 1.6 1.6 1.6zM30.38 4.83a.53.53 0 1 1 0 1.06.53.53 0 0 1 0-1.06zM3.2 6.97c0-.3.24-.53.53-.53h21.32c.3 0 .54.23.54.53V9.2l-1.07 1.01V8.03a.53.53 0 0 0-.53-.53H4.79a.53.53 0 0 0-.53.53v13.33c0 .3.24.53.54.53h19.19c.3 0 .53-.23.53-.53V11.7l1.07-1.01v12.28H3.19v-16zM8 13.9a1.6 1.6 0 1 0 1.1 2.75l1.86.93c.21.1.47.06.63-.12l3.94-4.44 3.87 2.9c.21.16.5.14.69-.03l3.36-3.2v8.14H5.33V8.57h18.12v2.66l-3.77 3.57-3.9-2.93a.53.53 0 0 0-.72.08l-4 4.49-1.49-.75c.02-.06.02-.13.02-.19 0-.88-.71-1.6-1.6-1.6zm.53 1.6a.53.53 0 1 1-1.07 0 .53.53 0 0 1 1.07 0zm3.2 8.53h5.33v.53c0 .3-.24.53-.53.53h-4.27a.53.53 0 0 1-.53-.53v-.53zm-10.66.53c0-.3.24-.53.53-.53h9.06v.53c0 .88.72 1.6 1.6 1.6h4.26c.89 0 1.6-.72 1.6-1.6v-.53h9.06c.3 0 .54.24.54.53v2.13c0 .3-.24.53-.53.53H1.59a.53.53 0 0 1-.52-.53v-2.13z"/>
    </symbol>
    <symbol id="icon-astronaut" viewBox="0 0 32 32">
      <path fill="var(--color2, #2196f3)" d="M31.97 4.52a.53.53 0 0 0-.43-.36l-1.9-.28-.86-1.73c-.18-.36-.78-.36-.96 0l-.85 1.73-1.91.28a.54.54 0 0 0-.3.91l1.38 1.35-.32 1.9c-.04.2.05.4.21.52.17.12.38.14.56.04l1.71-.9 1.71.9a.54.54 0 0 0 .78-.56l-.33-1.9 1.38-1.35c.15-.14.2-.35.14-.55zm-2.46 1.33a.53.53 0 0 0-.15.47l.19 1.12-1-.53a.53.53 0 0 0-.5 0l-1 .53.2-1.12a.53.53 0 0 0-.16-.47l-.81-.79 1.12-.16a.53.53 0 0 0 .4-.3l.5-1 .5 1c.08.16.23.27.4.3l1.12.16-.8.8zm-3.38 14.67h-1.06v1.07h1.06v-1.07zm0 2.14h-1.06v1.06h1.06v-1.06zm1.07-1.07h-1.07v1.07h1.07v-1.07zm-2.13 0H24v1.07h1.07v-1.07zm-2.67 4.8h-1.07v1.07h1.07v-1.07zm0 2.13h-1.07v1.07h1.07v-1.07zm1.07-1.06H22.4v1.06h1.07v-1.06zm-2.14 0h-1.06v1.06h1.06v-1.06zM16 24.26h-1.07v1.06H16v-1.06zm0 2.13h-1.07v1.07H16v-1.07zm1.07-1.07H16v1.07h1.07v-1.07zm-2.14 0h-1.06v1.07h1.06v-1.07zM5.87 6.12H4.8V7.2h1.07V6.12zm0 2.14H4.8v1.06h1.07V8.26zm1.06-1.07H5.87v1.07h1.06V7.19zm-2.13 0H3.73v1.07H4.8V7.19z"/>
      <path fill="var(--color1, #212121)" d="M24.71 14.16a1.7 1.7 0 0 0-1.18-.7c-.48-.07-.96.05-1.34.35l-1.26.96-1.9 1.41-1.35-.54A6.94 6.94 0 0 0 14.83 2.4a6.96 6.96 0 0 0-6.96 6.93 6.9 6.9 0 0 0 1.12 3.76l-2.76-.02H6.2l-.16.03-.03.02h-.02l-3.24 1.6-1.89.9a1.78 1.78 0 0 0 .93 3.3c.3.01.58-.06.84-.2l1.4-.74 2.26-1.17h1.35L2.2 22.2.86 23.55a1.65 1.65 0 0 0 0 2.35 1.67 1.67 0 0 0 2.36 0l1.31-1.3 1.74-1.3.9.89-1.76 1.75-1.34 1.34a1.65 1.65 0 0 0 0 2.36 1.67 1.67 0 0 0 2.36 0l3.48-3.47 1.01-1 .02-.02 5.17-5.66 3.47.5h.07c.07 0 .13-.02.2-.04l.04-.02.06-.03 3.21-2.13.03-.03.04-.03 1.27-1.19c.67-.62.76-1.63.22-2.36zM2.14 17.77a.71.71 0 0 1-.56.05.72.72 0 0 1-.21-1.26l1.31-.63.45 1.31-.99.53zm3.5-1.83-1.55.8-.44-1.28 2.03-1-.04 1.48zm15.1-6.62c0 .92-.22 1.79-.6 2.56l-4.18-1.9a1.86 1.86 0 0 0-.8-1.39l1.47-4.86a5.88 5.88 0 0 1 4.1 5.6zm-11.8 0a5.89 5.89 0 0 1 6.65-5.81l-1.44 4.75h-.05a1.87 1.87 0 1 0 0 3.73c.7 0 1.3-.38 1.62-.95l3.86 1.76A5.9 5.9 0 0 1 8.94 9.32zm5.96.8a.8.8 0 0 1-1.6 0 .8.8 0 0 1 1.6 0zM2.46 25.15a.6.6 0 0 1-.85 0 .6.6 0 0 1 0-.85l.96-.95.85.84-.96.96zm3.22 3.73a.6.6 0 0 1-.86 0 .6.6 0 0 1 0-.84l.97-.96.85.85-.96.95zm3.48-3.47-1.77 1.76-.85-.85 1.76-1.75c.05-.04.07-.09.1-.14l.02-.04c.02-.04.02-.08.03-.13l.01-.07-.02-.1c0-.04 0-.07-.02-.1a.55.55 0 0 0-.09-.14l-.02-.04-1.61-1.6-.06-.04a.5.5 0 0 0-.09-.05.51.51 0 0 0-.09-.04.5.5 0 0 0-.1-.02.5.5 0 0 0-.1 0l-.1.03a.48.48 0 0 0-.1.04l-.06.03-1.77 1.33-.9-.9 2.4-2.39 4.36 4.3-.93.91zm6.82-7.02h-.05a.56.56 0 0 0-.3.08.5.5 0 0 0-.08.06l-.04.03-4.7 5.15-4.33-4.26 2.84-2.82a.53.53 0 0 0-.38-.9H6.72l.03-1.6 3.1.02a6.95 6.95 0 0 0 6.26 1.98c.04.03.08.07.13.09l2.41.96.33 1.64-3-.43zm4.04.18-.31-1.56 1.44-1.08.95 1.26-2.08 1.38zm3.75-2.83-.83.79-.94-1.24.84-.64a.73.73 0 0 1 .54-.14.72.72 0 0 1 .4 1.23z"/>
      <path fill="var(--color1, #212121)" d="m13.6 18.54-2.14-2.13a.53.53 0 0 0-.75 0l-2.15 2.13a.54.54 0 0 0 0 .76l2.15 2.13a.54.54 0 0 0 .75 0l2.14-2.13a.54.54 0 0 0 0-.76zm-2.52 1.76L9.7 18.92l1.38-1.38 1.39 1.38-1.39 1.38zm6.08-15.23-.25 1.04c.07.01 1.73.45 1.73 2.15h1.07c0-2.02-1.66-2.97-2.55-3.19zm2.55 4.25h-1.07v1.07h1.07V9.32z"/>
    </symbol>
  </defs>
</svg>
